<svg width="17" height="16" viewBox="0 0 17 16" fill="none" xmlns="http://www.w3.org/2000/svg">
<path fill-rule="evenodd" clip-rule="evenodd" d="M3.5 1C3.5 0.45 3.05 0 2.5 0C1.12 0 0 1.12 0 2.5C0 3.05 0.45 3.5 1 3.5C1.55 3.5 2 3.05 2 2.5C2 2.22 2.22 2 2.5 2C3.05 2 3.5 1.55 3.5 1ZM16 13C16 14.66 14.66 16 13 16C11.34 16 10 14.66 10 13C10 11.34 11.34 10 13 10C14.66 10 16 11.34 16 13ZM11.5 0C10.95 0 10.5 0.45 10.5 1C10.5 1.55 10.95 2 11.5 2C11.78 2 12 2.22 12 2.5C12 3.05 12.45 3.5 13 3.5C13.55 3.5 14 3.05 14 2.5C14 1.12 12.88 0 11.5 0ZM3.5 13C3.5 13.55 3.05 14 2.5 14C1.12 14 0 12.88 0 11.5C0 10.95 0.45 10.5 1 10.5C1.55 10.5 2 10.95 2 11.5C2 11.78 2.22 12 2.5 12C3.05 12 3.5 12.45 3.5 13ZM0 6C0 5.45 0.45 5 1 5C1.55 5 2 5.45 2 6V8C2 8.55 1.55 9 1 9C0.45 9 0 8.55 0 8V6ZM13 5C12.45 5 12 5.45 12 6V8C12 8.55 12.45 9 13 9C13.55 9 14 8.55 14 8V6C14 5.45 13.55 5 13 5ZM6 2C5.45 2 5 1.55 5 1C5 0.45 5.45 0 6 0H8C8.55 0 9 0.45 9 1C9 1.55 8.55 2 8 2H6ZM5 13C5 13.55 5.45 14 6 14H8C8.55 14 9 13.55 9 13C9 12.45 8.55 12 8 12H6C5.45 12 5 12.45 5 13Z" fill="#8B8E8F"/>
</svg>
