<svg width="16" height="16" viewBox="0 0 16 16" fill="none" xmlns="http://www.w3.org/2000/svg">
<path fill-rule="evenodd" clip-rule="evenodd" d="M3.705 0.295002C3.315 -0.0949976 2.685 -0.0949976 2.295 0.295002L0.294999 2.295C-0.0950014 2.685 -0.0950014 3.315 0.294999 3.705C0.684999 4.095 1.315 4.095 1.705 3.705L1.995 3.415V13.005C1.995 13.555 2.445 14.005 2.995 14.005H12.585L12.295 14.295C11.905 14.685 11.905 15.315 12.295 15.705C12.685 16.095 13.315 16.095 13.705 15.705L15.705 13.705C16.095 13.315 16.095 12.685 15.705 12.295L13.705 10.295C13.315 9.905 12.685 9.905 12.295 10.295C11.905 10.685 11.905 11.315 12.295 11.705L12.585 12.005H3.995V3.415L4.285 3.705C4.675 4.095 5.305 4.095 5.695 3.705C6.085 3.315 6.085 2.685 5.695 2.295L3.705 0.295002ZM14.885 2.455C15.135 1.965 14.935 1.365 14.435 1.115C13.945 0.865002 13.345 1.065 13.095 1.565L11.145 5.455L9.615 4.225C9.375 4.035 9.075 3.965 8.775 4.025C8.485 4.095 8.235 4.285 8.105 4.555L6.105 8.555C5.855 9.055 6.055 9.655 6.545 9.895C7.035 10.145 7.635 9.945 7.885 9.445L9.335 6.555L10.865 7.785C11.105 7.975 11.405 8.045 11.705 7.985C11.995 7.925 12.245 7.725 12.385 7.455L14.885 2.455Z" fill="#8B8E8F"/>
</svg>
