<svg width="16" height="16" viewBox="0 0 16 16" fill="none" xmlns="http://www.w3.org/2000/svg">
<path fill-rule="evenodd" clip-rule="evenodd" d="M2.295 2.295C1.905 2.685 1.905 3.315 2.295 3.705L6.595 8.005L2.305 12.295C1.915 12.685 1.915 13.315 2.305 13.705C2.695 14.095 3.325 14.095 3.715 13.705L8.005 9.415L12.295 13.705C12.685 14.095 13.315 14.095 13.705 13.705C14.095 13.315 14.095 12.685 13.705 12.295L9.415 8.005L13.705 3.715C14.095 3.325 14.095 2.695 13.705 2.305C13.315 1.915 12.685 1.915 12.295 2.305L8.005 6.595L3.715 2.295C3.325 1.905 2.685 1.905 2.295 2.295Z" fill="#8B8E8F"/>
</svg>
