<svg width="16" height="16" viewBox="0 0 16 16" fill="none" xmlns="http://www.w3.org/2000/svg">
<path fill-rule="evenodd" clip-rule="evenodd" d="M7.5 3.99705H8C8.28 3.99705 8.5 4.21705 8.5 4.49705V4.99705V6.99705V7.49705C8.5 7.77705 8.28 7.99705 8 7.99705H7.5H5.15L3.78 8.91705C3.47 9.11705 3.06 8.92705 3.01 8.57705L3 8.49705V7.49705V4.99705V4.49705C3 4.21705 3.22 3.99705 3.5 3.99705H4H7.5ZM7.5 8.99705V9.99705V10.497C7.5 10.777 7.72 10.997 8 10.997H8.5H10.85L12.22 11.917C12.53 12.127 12.93 11.927 12.99 11.587L13 11.497V10.497V7.99705V7.49705C13 7.21705 12.78 6.99705 12.5 6.99705H12H9.5V7.49705C9.5 8.32705 8.83 8.99705 8 8.99705H7.5Z" fill="#8B8E8F"/>
</svg>
