<svg width="16" height="16" viewBox="0 0 16 16" fill="none" xmlns="http://www.w3.org/2000/svg">
<path fill-rule="evenodd" clip-rule="evenodd" d="M7.21702 4.78978C6.82702 4.39978 6.19702 4.39978 5.80702 4.78978L3.30702 7.28978L3.21702 7.38978C2.90702 7.77978 2.93702 8.34978 3.29702 8.70978L5.79702 11.2098L5.88702 11.2898C6.27702 11.5898 6.84702 11.5698 7.20702 11.2098L7.28702 11.1198C7.60702 10.7198 7.57702 10.1498 7.21702 9.78978L5.42702 7.99978L7.21702 6.20978L7.29702 6.11978C7.60702 5.71978 7.57702 5.14978 7.21702 4.78978ZM8.79702 4.78978C9.18702 4.39978 9.81702 4.39978 10.207 4.78978L12.707 7.28978L12.787 7.37978C13.087 7.76978 13.067 8.33978 12.707 8.69978L10.207 11.1998L10.117 11.2898C9.72702 11.5998 9.15702 11.5698 8.79702 11.2098L8.71702 11.1098C8.40702 10.7198 8.43702 10.1498 8.79702 9.78978L10.597 7.99978L8.79702 6.20978L8.71702 6.10978C8.40702 5.71978 8.43702 5.14978 8.79702 4.78978Z" fill="#8B8E8F"/>
</svg>
