<svg width="16" height="16" viewBox="0 0 16 16" fill="none" xmlns="http://www.w3.org/2000/svg">
<path fill-rule="evenodd" clip-rule="evenodd" d="M6 3C5.45 3 5 3.45 5 4C5 4.55 5.45 5 6 5H7V3H6ZM7 1H6C4.34 1 3 2.34 3 4C3 4.77 3.29 5.47 3.76 6C3.29 6.53 3 7.23 3 8C3 8.77 3.29 9.47 3.76 10C3.29 10.53 3 11.23 3 12C3 13.66 4.34 15 6 15C7.66 15 9 13.66 9 12V11V10.83C9.31 10.94 9.65 11 10 11C11.66 11 13 9.66 13 8C13 7.23 12.71 6.53 12.24 6C12.71 5.47 13 4.77 13 4C13 2.34 11.66 1 10 1H9H8H7ZM9 3V5H10C10.55 5 11 4.55 11 4C11 3.45 10.55 3 10 3H9ZM7 7H6C5.45 7 5 7.45 5 8C5 8.55 5.45 9 6 9H7V8V7ZM10 7C10.55 7 11 7.45 11 8C11 8.55 10.55 9 10 9C9.45 9 9 8.55 9 8C9 7.45 9.45 7 10 7ZM7 11H6C5.45 11 5 11.45 5 12C5 12.55 5.45 13 6 13C6.55 13 7 12.55 7 12V11Z" fill="#8B8E8F"/>
</svg>
