<svg width="16" height="16" viewBox="0 0 16 16" fill="none" xmlns="http://www.w3.org/2000/svg">
<path d="M12.6388 8.31291C12.4388 7.92291 12.0288 7.70291 11.5988 7.77291C11.5888 7.77291 11.5888 7.77291 11.5888 7.77291C11.5888 7.77291 11.5888 7.77291 11.5788 7.77291C11.5588 7.78291 11.5188 7.78291 11.4688 7.78291C11.3788 7.79291 11.2488 7.79291 11.0988 7.78291C10.7788 7.75291 10.5688 7.66291 10.4588 7.55291C10.2988 7.39291 10.2588 7.31291 10.1988 7.01291C10.1188 6.65291 10.0288 6.08291 9.63876 5.31291C9.15876 4.35291 8.36876 3.94291 7.71876 3.80291C7.40876 3.74291 7.12876 3.73291 6.92876 3.74291C6.82876 3.74291 6.73876 3.75291 6.67876 3.76291C6.64876 3.76291 6.61876 3.77291 6.59876 3.77291C6.58876 3.77291 6.57876 3.77291 6.56876 3.78291H6.55876C6.55876 3.78291 6.55876 3.78291 6.54876 3.78291C6.21876 3.85291 5.93876 4.08291 5.81876 4.40291L4.12876 8.80291L4.06876 8.95291L3.31876 10.9029C3.11876 11.4229 3.37876 12.0029 3.88876 12.1929C4.40876 12.3929 4.98876 12.1329 5.17876 11.6229L5.87876 9.80291C5.92876 9.76291 5.97876 9.73291 6.02876 9.71291C6.06876 9.69291 6.10876 9.69291 6.14876 9.70291C6.18876 9.71291 6.32876 9.75291 6.53876 9.97291C7.04876 10.4829 7.80876 11.2629 9.24876 11.2629C9.72876 11.2629 10.1688 11.0929 10.5088 10.9229C10.8588 10.7429 11.1988 10.5229 11.4788 10.3129C11.7588 10.1029 11.9988 9.89291 12.1688 9.74291C12.2588 9.66291 12.3188 9.59291 12.3688 9.55291C12.3988 9.52291 12.4188 9.51291 12.4288 9.49291C12.4388 9.48291 12.4388 9.48291 12.4488 9.48291C12.4488 9.47291 12.4488 9.47291 12.4488 9.47291H12.4588C12.7588 9.16291 12.8388 8.69291 12.6388 8.31291ZM9.27876 9.26291C9.26876 9.26291 9.25876 9.26291 9.25876 9.26291C9.24876 9.26291 9.24876 9.26291 9.24876 9.26291C8.68876 9.26291 8.44876 9.04291 7.95876 8.55291C7.54876 8.15291 7.11876 7.89291 6.65876 7.77291L7.41876 5.79291C7.56876 5.85291 7.72876 5.96291 7.85876 6.21291C8.10876 6.72291 8.15876 7.04291 8.24876 7.43291C8.34876 7.89291 8.48876 8.42291 9.03876 8.97291C9.14876 9.07291 9.24876 9.16291 9.35876 9.24291C9.31876 9.25291 9.29876 9.25291 9.27876 9.26291Z" fill="#8B8E8F"/>
</svg>
