<svg width="16" height="16" viewBox="0 0 16 16" fill="none" xmlns="http://www.w3.org/2000/svg">
<path fill-rule="evenodd" clip-rule="evenodd" d="M16 8C16 12.42 12.42 16 8 16C3.58 16 0 12.42 0 8C0 3.58 3.58 0 8 0C12.42 0 16 3.58 16 8ZM14 8C14 11.31 11.31 14 8 14C4.69 14 2 11.31 2 8C2 4.69 4.69 2 8 2C11.31 2 14 4.69 14 8ZM11 6.5C11 4.84 9.66 3.5 8 3.5C6.34 3.5 5 4.84 5 6.5C5 7.05 5.45 7.5 6 7.5C6.51 7.5 6.94 7.11 6.99 6.62L7 6.5C7 5.95 7.45 5.5 8 5.5C8.55 5.5 9 5.95 9 6.5C9 7.01 8.61 7.44 8.12 7.49L8 7.5C7.45 7.5 7 7.95 7 8.5V9C7 9.55 7.45 10 8 10C8.39 10 8.72 9.78 8.89 9.46L8.94 9.35C10.13 8.96 11 7.83 11 6.5ZM9 11.5C9 12.05 8.55 12.5 8 12.5C7.45 12.5 7 12.05 7 11.5C7 10.95 7.45 10.5 8 10.5C8.55 10.5 9 10.95 9 11.5Z" fill="#8B8E8F"/>
</svg>
