<svg width="16" height="16" viewBox="0 0 16 16" fill="none" xmlns="http://www.w3.org/2000/svg">
<path fill-rule="evenodd" clip-rule="evenodd" d="M0.241377 8.72269C-0.118407 8.30368 -0.0703908 7.67234 0.348624 7.31255L7.41937 1.24131C7.79358 0.919996 8.34617 0.919513 8.72094 1.24017L15.6501 7.16882C16.0697 7.52788 16.1188 8.15913 15.7598 8.57878C15.4007 8.99842 14.7695 9.04754 14.3498 8.68848L13.5005 7.96179V13H14.0005C14.5528 13 15.0005 13.4477 15.0005 14C15.0005 14.5523 14.5528 15 14.0005 15H2.00048C1.4482 15 1.00048 14.5523 1.00048 14C1.00048 13.4477 1.4482 13 2.00048 13H2.50048V8.10098L1.65152 8.82994C1.2325 9.18973 0.601161 9.14171 0.241377 8.72269ZM4.50048 6.3837V13H7.00048V10C7.00048 9.44774 7.4482 9.00002 8.00048 9.00002C8.55277 9.00002 9.00048 9.44774 9.00048 10V13H11.5005V6.25056L8.07197 3.31707L4.50048 6.3837Z" fill="#8B8E8F"/>
</svg>
