<svg width="16" height="16" viewBox="0 0 16 16" fill="none" xmlns="http://www.w3.org/2000/svg">
<path fill-rule="evenodd" clip-rule="evenodd" d="M8.5 13H9C9.55 13 10 12.55 10 12C10 11.66 10.04 11.33 10.13 11H5.87C5.96 11.33 6 11.66 6 12C6 12.55 6.45 13 7 13H7.5H8.5ZM4 12C4 10.5 2 9 2 6C2 3 4.69 0 8 0C11.31 0 14 3 14 6C14 9 12 10.5 12 12C12 13.32 11.15 14.44 9.96 14.84C9.81 15.51 9.21 16 8.5 16H7.5C6.79 16 6.19 15.51 6.04 14.84C4.85 14.44 4 13.32 4 12ZM11.24 8.62C11.77 7.62 12 6.9 12 6C12 3.98 10.09 2 8 2C5.91 2 4 3.98 4 6C4 6.9 4.23 7.62 4.76 8.62C4.8 8.69 4.89 8.85 4.97 9H11.03C11.11 8.85 11.2 8.69 11.24 8.62Z" fill="#8B8E8F"/>
</svg>
