<svg width="16" height="16" viewBox="0 0 16 16" fill="none" xmlns="http://www.w3.org/2000/svg">
<path fill-rule="evenodd" clip-rule="evenodd" d="M11.9982 7.87643C12.2277 7.64695 12.5984 7.64695 12.8279 7.87643C13.0574 8.10591 13.0574 8.4766 12.8279 8.70608L11.3569 10.1771C11.1274 10.4066 10.7567 10.4066 10.5272 10.1771L9.05619 8.70608C8.82671 8.4766 8.82671 8.10591 9.05619 7.87643C9.28567 7.64695 9.65637 7.64695 9.88585 7.87643L10.3566 8.34715L10.3566 7.99999C10.3566 6.69961 9.30332 5.64636 8.00294 5.64636C7.67932 5.64636 7.41453 5.38158 7.41453 5.05795C7.41453 4.73433 7.67932 4.46954 8.00294 4.46954C9.95057 4.46954 11.5334 6.05236 11.5334 7.99999L11.5334 8.34715L11.9982 7.87643ZM4.47249 7.99999C4.47249 9.94763 6.05531 11.5304 8.00294 11.5304C8.32657 11.5304 8.59135 11.2657 8.59135 10.942C8.59135 10.6184 8.32657 10.3536 8.00294 10.3536C6.70256 10.3536 5.64931 9.30038 5.64931 7.99999L5.64931 7.65283L6.11415 8.11768C6.34363 8.34715 6.71433 8.34715 6.94381 8.11768C7.17329 7.8882 7.17329 7.5175 6.94381 7.28802L5.47278 5.817C5.24331 5.58752 4.87261 5.58752 4.64313 5.817L3.17211 7.28802C2.94263 7.5175 2.94263 7.8882 3.17211 8.11768C3.40159 8.34715 3.77228 8.34715 4.00176 8.11768L4.47249 7.65283L4.47249 7.99999Z" fill="#8B8E8F" stroke="#8B8E8F" stroke-width="0.3"/>
</svg>
