<svg width="16" height="16" viewBox="0 0 16 16" fill="none" xmlns="http://www.w3.org/2000/svg">
<path fill-rule="evenodd" clip-rule="evenodd" d="M14.3972 7.8023C14.7643 7.43514 15.3575 7.43514 15.7246 7.8023C16.0918 8.16947 16.0918 8.76259 15.7246 9.12975L13.371 11.4834C13.0038 11.8506 12.4107 11.8506 12.0435 11.4834L9.68991 9.12975C9.32274 8.76259 9.32274 8.16947 9.68991 7.8023C10.0571 7.43514 10.6502 7.43514 11.0174 7.8023L11.7705 8.55547L11.7705 8.00001C11.7705 5.9194 10.0853 4.23419 8.00471 4.23419C7.48691 4.23419 7.06325 3.81054 7.06325 3.29274C7.06325 2.77494 7.48691 2.35129 8.00471 2.35129C11.1209 2.35129 13.6534 4.8838 13.6534 8.00001L13.6534 8.55547L14.3972 7.8023ZM2.35599 8.00001C2.35599 11.1162 4.88849 13.6487 8.00471 13.6487C8.52251 13.6487 8.94616 13.2251 8.94616 12.7073C8.94616 12.1895 8.52251 11.7658 8.00471 11.7658C5.92409 11.7658 4.23889 10.0806 4.23889 8.00001L4.23889 7.44455L4.98264 8.1883C5.34981 8.55547 5.94292 8.55547 6.31009 8.1883C6.67726 7.82113 6.67726 7.22802 6.31009 6.86085L3.95646 4.50722C3.58929 4.14005 2.99617 4.14005 2.62901 4.50722L0.275374 6.86085C-0.0917933 7.22802 -0.0917933 7.82113 0.275374 8.1883C0.642541 8.55547 1.23566 8.55547 1.60282 8.1883L2.35599 7.44455L2.35599 8.00001Z" fill="#8B8E8F"/>
</svg>
