<svg width="16" height="16" viewBox="0 0 16 16" fill="none" xmlns="http://www.w3.org/2000/svg">
<path fill-rule="evenodd" clip-rule="evenodd" d="M2.34688 8.005C2.73688 7.615 3.36688 7.615 3.75688 8.005C4.14688 8.395 4.14688 9.025 3.75688 9.415L3.05688 10.125C2.27688 10.905 2.27688 12.175 3.05688 12.955C3.83688 13.735 5.10688 13.735 5.88688 12.955L8.71688 10.125C9.49688 9.345 9.49688 8.075 8.71688 7.295C8.32688 6.905 8.32688 6.275 8.71688 5.885C9.10688 5.495 9.73688 5.495 10.1269 5.885C11.6869 7.445 11.6869 9.975 10.1269 11.545L7.29688 14.365C5.73688 15.925 3.20688 15.925 1.63688 14.365C0.0668801 12.805 0.0768802 10.275 1.63688 8.705L2.34688 8.005ZM13.6569 8.005C13.2669 8.395 12.6369 8.395 12.2469 8.005C11.8569 7.615 11.8569 6.985 12.2469 6.595L12.9569 5.885C13.7369 5.105 13.7369 3.835 12.9569 3.055C12.1769 2.275 10.9069 2.275 10.1269 3.055L7.29688 5.875C6.51688 6.655 6.51688 7.925 7.29688 8.705C7.68688 9.095 7.68688 9.725 7.29688 10.115C6.90688 10.505 6.27688 10.505 5.88688 10.115C4.31688 8.555 4.31688 6.025 5.87688 4.465L8.70688 1.635C10.2669 0.0749964 12.7969 0.0749964 14.3669 1.635C15.9269 3.195 15.9269 5.725 14.3669 7.295L13.6569 8.005Z" fill="#8B8E8F"/>
</svg>
