<svg width="16" height="16" viewBox="0 0 16 16" fill="none" xmlns="http://www.w3.org/2000/svg">
<path fill-rule="evenodd" clip-rule="evenodd" d="M2.5 0.5C1.95 0.5 1.5 0.95 1.5 1.5V3.5C0.95 3.5 0.5 3.95 0.5 4.5C0.5 5.05 0.95 5.5 1.5 5.5V6.5C0.95 6.5 0.5 6.95 0.5 7.5C0.5 8.05 0.95 8.5 1.5 8.5V9.5C0.95 9.5 0.5 9.95 0.5 10.5C0.5 11.05 0.95 11.5 1.5 11.5V13.5C1.5 14.05 1.95 14.5 2.5 14.5H7.84C7.62 14.05 7.5 13.54 7.5 13C7.5 12.83 7.51 12.66 7.54 12.5H3.5V11.5C4.05 11.5 4.5 11.05 4.5 10.5C4.5 9.95 4.05 9.5 3.5 9.5V8.5C4.05 8.5 4.5 8.05 4.5 7.5C4.5 6.95 4.05 6.5 3.5 6.5V5.5C4.05 5.5 4.5 5.05 4.5 4.5C4.5 3.95 4.05 3.5 3.5 3.5V2.5H11.5C12.05 2.5 12.5 2.95 12.5 3.5V7.54C12.66 7.51 12.83 7.5 13 7.5C13.54 7.5 14.05 7.62 14.5 7.84V3.5C14.5 1.84 13.16 0.5 11.5 0.5H2.5ZM13.5 10.5C13.5 9.95 13.05 9.5 12.5 9.5C11.95 9.5 11.5 9.95 11.5 10.5V11.5H10.5C9.95 11.5 9.5 11.95 9.5 12.5C9.5 13.05 9.95 13.5 10.5 13.5H11.5V14.5C11.5 15.05 11.95 15.5 12.5 15.5C13.05 15.5 13.5 15.05 13.5 14.5V13.5H14.5C15.05 13.5 15.5 13.05 15.5 12.5C15.5 11.95 15.05 11.5 14.5 11.5H13.5V10.5Z" fill="#8B8E8F"/>
</svg>
