<svg width="16" height="16" viewBox="0 0 16 16" fill="none" xmlns="http://www.w3.org/2000/svg">
<path d="M8.64844 4.30566C9.32396 3.63084 10.4204 3.6315 11.0957 4.30664L11.6934 4.9043C12.3687 5.57975 12.3688 6.67619 11.6934 7.35156L8.07324 10.9717C7.99483 11.05 7.90129 11.1065 7.7959 11.1416L4.73242 12.1631C4.47936 12.2474 4.19295 12.1856 4.00391 11.9893C3.82288 11.8011 3.7498 11.525 3.83594 11.2666L4.85742 8.20312C4.89111 8.10228 4.94687 8.00234 5.02832 7.9209L7.83691 5.1123L8.64844 4.30566ZM6.05566 8.90332L5.2002 10.7988L7.0957 9.94238L8.94141 8.09277L7.90625 7.05762L6.05566 8.90332ZM10.0928 5.30859C9.9717 5.18813 9.77709 5.18874 9.65625 5.30957H9.65527L8.75293 6.20703L9.79199 7.24609L10.6904 6.34863C10.8114 6.22766 10.8113 6.03312 10.6904 5.91211V5.91113L10.0928 5.30859Z" fill="#8B8E8F" stroke="#8B8E8F" stroke-width="0.4"/>
</svg>
