<svg width="16" height="16" viewBox="0 0 16 16" fill="none" xmlns="http://www.w3.org/2000/svg">
<path fill-rule="evenodd" clip-rule="evenodd" d="M2 2C2 1.45 2.45 1 3 1H12C13.66 1 15 2.34 15 4V12C15 13.66 13.66 15 12 15H3C2.45 15 2 14.55 2 14V12C1.45 12 1 11.55 1 11C1 10.45 1.45 10 2 10V9C1.45 9 1 8.55 1 8C1 7.45 1.45 7 2 7V6C1.45 6 1 5.55 1 5C1 4.45 1.45 4 2 4V2ZM4 6C4.55 6 5 5.55 5 5C5 4.45 4.55 4 4 4V3H12C12.55 3 13 3.45 13 4V12C13 12.55 12.55 13 12 13H4V12C4.55 12 5 11.55 5 11C5 10.45 4.55 10 4 10V9C4.55 9 5 8.55 5 8C5 7.45 4.55 7 4 7V6Z" fill="#8B8E8F"/>
</svg>
