<svg width="16" height="16" viewBox="0 0 16 16" fill="none" xmlns="http://www.w3.org/2000/svg">
<path fill-rule="evenodd" clip-rule="evenodd" d="M10.65 0.01C11.72 0.12 12.5 1.07 12.39 2.14L12.1 5H13.85C13.94 5 14.03 5.01 14.11 5.02C15.2 5.17 15.97 6.17 15.83 7.27L15.54 9.43C15.13 8.77 14.48 8.28 13.7 8.09L13.86 7H11C10.41 7 9.95 6.49 10.01 5.9L10.39 2C10.16 2.02 9.95 2.16 9.85 2.37L7.9 6.43C7.73 6.78 7.38 7 7 7H6V12C6.02 12 6.04 12 6.06 12L8.13 12.13C8.04 12.41 8 12.7 8 13C8 13.4 8.08 13.79 8.22 14.14L5.94 14C5.88 14 5.81 13.99 5.75 13.97C5.41 14.58 4.75 15 4 15H2C0.9 15 0 14.1 0 13V6C0 4.9 0.9 4 2 4H4C4.75 4 5.41 4.42 5.75 5.03C5.83 5.01 5.91 5 6 5H6.37L8.05 1.51C8.5 0.59 9.43 0 10.45 0C10.52 0 10.58 0 10.65 0.01ZM2 6V13H4V6H2ZM12 11C12 10.45 12.45 10 13 10C13.55 10 14 10.45 14 11V12H15C15.55 12 16 12.45 16 13C16 13.55 15.55 14 15 14H14V15C14 15.55 13.55 16 13 16C12.45 16 12 15.55 12 15V14H11C10.45 14 10 13.55 10 13C10 12.45 10.45 12 11 12H12V11Z" fill="#8B8E8F"/>
</svg>
