<svg width="16" height="16" viewBox="0 0 16 16" fill="none" xmlns="http://www.w3.org/2000/svg">
<path fill-rule="evenodd" clip-rule="evenodd" d="M6.86 6.75L8.55 4.64C8.75 4.39 9.04 4.25 9.36 4.25C9.64 4.25 9.86 4.47 9.86 4.75V6.75H11.14C11.69 6.75 12.14 7.2 12.14 7.75C12.14 7.82 12.13 7.88 12.12 7.95L11.72 9.95C11.52 10.97 10.57 11.66 9.54 11.55L6.86 11.25V6.75ZM4.36 5.75H5.36C5.64 5.75 5.86 5.97 5.86 6.25V11.25C5.86 11.53 5.64 11.75 5.36 11.75H4.36C4.08 11.75 3.86 11.53 3.86 11.25V6.25C3.86 5.97 4.08 5.75 4.36 5.75Z" fill="#8B8E8F"/>
</svg>
