<svg width="16" height="16" viewBox="0 0 16 16" fill="none" xmlns="http://www.w3.org/2000/svg">
<path fill-rule="evenodd" clip-rule="evenodd" d="M10.7268 0.51C11.7968 0.62 12.5768 1.57 12.4668 2.64L12.1768 5.5H13.9268C14.0168 5.5 14.1068 5.51 14.1868 5.52C15.2768 5.67 16.0468 6.67 15.9068 7.77L15.3068 12.29C15.0968 13.85 13.7168 14.99 12.1468 14.89L6.01678 14.5C5.95678 14.5 5.88678 14.49 5.82678 14.47C5.48678 15.08 4.82678 15.5 4.07678 15.5H2.07678C0.976782 15.5 0.0767822 14.6 0.0767822 13.5V6.5C0.0767822 5.4 0.976782 4.5 2.07678 4.5H4.07678C4.82678 4.5 5.48678 4.92 5.82678 5.53C5.90678 5.51 5.98678 5.5 6.07678 5.5H6.44678L8.12678 2.01C8.57678 1.09 9.50678 0.5 10.5268 0.5C10.5968 0.5 10.6568 0.5 10.7268 0.51ZM6.07678 7.5V12.5C6.09678 12.5 6.11678 12.5 6.13678 12.5L12.2768 12.88C12.7968 12.91 13.2568 12.53 13.3268 12.01L13.9368 7.5H11.0768C10.4868 7.5 10.0268 6.99 10.0868 6.4L10.4668 2.5C10.2368 2.52 10.0268 2.66 9.92678 2.87L7.97678 6.93C7.80678 7.28 7.45678 7.5 7.07678 7.5H6.07678ZM2.07678 13.5V6.5H4.07678V13.5H2.07678Z" fill="#8B8E8F"/>
</svg>
