<svg width="16" height="16" viewBox="0 0 16 16" fill="none" xmlns="http://www.w3.org/2000/svg">
<path fill-rule="evenodd" clip-rule="evenodd" d="M9.24875 6.74875C9.24875 8.12875 8.12875 9.24875 6.74875 9.24875C5.36875 9.24875 4.24875 8.12875 4.24875 6.74875C4.24875 5.36875 5.36875 4.24875 6.74875 4.24875C8.12875 4.24875 9.24875 5.36875 9.24875 6.74875ZM2.24875 6.74875C2.24875 9.23875 4.25875 11.2487 6.74875 11.2487C7.62875 11.2487 8.44875 10.9987 9.14875 10.5587L12.0487 13.4587C12.4387 13.8487 13.0687 13.8487 13.4587 13.4587C13.8487 13.0687 13.8487 12.4387 13.4587 12.0487L10.5587 9.14875C10.9987 8.44875 11.2487 7.62875 11.2487 6.74875C11.2487 4.25875 9.23875 2.24875 6.74875 2.24875C4.25875 2.24875 2.24875 4.25875 2.24875 6.74875Z" fill="#8B8E8F"/>
</svg>
