<svg width="16" height="16" viewBox="0 0 16 16" fill="none" xmlns="http://www.w3.org/2000/svg">
<path fill-rule="evenodd" clip-rule="evenodd" d="M10.295 10.29C10.685 9.9 11.315 9.9 11.705 10.29C12.095 10.68 12.095 11.31 11.705 11.7L8.705 14.7C8.315 15.09 7.685 15.09 7.295 14.7L4.295 11.7C3.905 11.31 3.905 10.68 4.295 10.29C4.685 9.9 5.315 9.9 5.705 10.29L8.005 12.59L10.295 10.29ZM10.295 5.71C10.685 6.1 11.315 6.1 11.705 5.71C12.095 5.32 12.095 4.69 11.705 4.3L8.705 1.3C8.315 0.91 7.685 0.91 7.295 1.3L4.295 4.3C3.905 4.69 3.905 5.32 4.295 5.71C4.685 6.1 5.315 6.1 5.705 5.71L8.005 3.41L10.295 5.71Z" fill="#8B8E8F"/>
</svg>
