<svg width="16" height="16" viewBox="0 0 16 16" fill="none" xmlns="http://www.w3.org/2000/svg">
<path fill-rule="evenodd" clip-rule="evenodd" d="M7.16 6.77C7.68 6.16 8 5.37 8 4.5C8 5.37 8.32 6.16 8.84 6.77C8.53 6.98 8.24 7.21 8 7.48C7.76 7.21 7.47 6.98 7.16 6.77ZM14.16 6.77C14.68 6.16 15 5.37 15 4.5C15 2.57 13.43 1 11.5 1C9.57 1 8 2.57 8 4.5C8 2.57 6.43 1 4.5 1C2.57 1 1 2.57 1 4.5C1 5.37 1.32 6.16 1.84 6.77C0.73 7.49 0 8.66 0 10V14C0 14.55 0.45 15 1 15C1.55 15 2 14.55 2 14V10C2 8.93 3.09 8 4.5 8C5.91 8 7 8.93 7 10V14C7 14.55 7.45 15 8 15C8.55 15 9 14.55 9 14V10C9 8.93 10.09 8 11.5 8C12.91 8 14 8.93 14 10V14C14 14.55 14.45 15 15 15C15.55 15 16 14.55 16 14V10C16 8.66 15.27 7.49 14.16 6.77ZM4.5 6C3.67 6 3 5.33 3 4.5C3 3.67 3.67 3 4.5 3C5.33 3 6 3.67 6 4.5C6 5.33 5.33 6 4.5 6ZM11.5 6C10.67 6 10 5.33 10 4.5C10 3.67 10.67 3 11.5 3C12.33 3 13 3.67 13 4.5C13 5.33 12.33 6 11.5 6Z" fill="#8B8E8F"/>
</svg>
