<svg width="16" height="16" viewBox="0 0 16 16" fill="none" xmlns="http://www.w3.org/2000/svg">
<path fill-rule="evenodd" clip-rule="evenodd" d="M3 14C3 11.84 5.2 10 8 10C10.8 10 13 11.84 13 14V15C13 15.55 13.45 16 14 16C14.55 16 15 15.55 15 15V14C15 11.7 13.51 9.73 11.34 8.72C12.36 7.81 13 6.48 13 5C13 2.24 10.76 0 8 0C5.24 0 3 2.24 3 5C3 6.48 3.64 7.81 4.66 8.72C2.49 9.73 1 11.7 1 14V15C1 15.55 1.45 16 2 16C2.55 16 3 15.55 3 15V14ZM11 5C11 6.66 9.66 8 8 8C6.34 8 5 6.66 5 5C5 3.34 6.34 2 8 2C9.66 2 11 3.34 11 5Z" fill="#8B8E8F"/>
</svg>
