<svg width="16" height="16" viewBox="0 0 16 16" fill="none" xmlns="http://www.w3.org/2000/svg">
<path d="M10.0117 8.69727C10.0294 9.11584 10.1999 9.51815 10.502 9.82031L10.8428 10.1611L10.1611 10.8428L9.82031 10.502L9.66797 10.3682C9.38901 10.1493 9.04914 10.0266 8.69727 10.0117C9.31935 9.80978 9.80978 9.31935 10.0117 8.69727ZM6.01953 7.98926C6.01862 8.01425 6.01661 8.03928 6.0166 8.06445C6.0166 9.04664 6.70826 9.86624 7.63086 10.0654C7.3177 10.0409 7.04767 9.96221 6.82227 9.84082C6.44644 9.63839 6.11768 9.28289 5.9043 8.71387C5.73576 8.26443 5.62166 7.89943 5.51855 7.48828L6.01953 7.98926ZM7.48828 5.51855C7.89943 5.62166 8.26443 5.73576 8.71387 5.9043C9.28289 6.11768 9.63839 6.44644 9.84082 6.82227C9.96221 7.04767 10.0409 7.3177 10.0654 7.63086C9.86624 6.70826 9.04664 6.0166 8.06445 6.0166C8.03928 6.01661 8.01425 6.01862 7.98926 6.01953L7.48828 5.51855Z" fill="none" stroke="#8B8E8F" stroke-width="1.4" stroke-linecap="round" stroke-linejoin="round"/>
</svg>
